<?xml version="1.0" encoding="UTF-8"?>
<svg width="98px" height="48px" viewBox="0 0 98 48" version="1.1" xmlns="http://www.w3.org/2000/svg" xmlns:xlink="http://www.w3.org/1999/xlink">
    <!-- Generator: Sketch 42 (36781) - http://www.bohemiancoding.com/sketch -->
    <title>sci.pe-logo-menubar-h48px</title>
    <desc>Created with Sketch.</desc>
    <defs></defs>
    <g id="Page-1" stroke="none" stroke-width="1" fill="none" fill-rule="evenodd">
        <g transform="translate(1.000000, 6.000000)" fill="#020302">
            <path d="M11.1653554,14.6643824 C11.1161653,13.887811 10.824595,13.275811 10.2894545,12.8264044 C9.75431405,12.3781846 8.976,12.1530857 7.9545124,12.1530857 C7.24839669,12.1530857 6.6101157,12.2931297 6.03887603,12.5720308 C5.46684298,12.8509319 5.18122314,13.2694813 5.18122314,13.8272835 C5.18122314,14.3854813 5.46684298,14.7977011 6.03887603,15.0647341 C6.6101157,15.331767 7.33408264,15.5497451 8.20958678,15.7190637 C9.0854876,15.8895692 10.021686,16.0652176 11.0193719,16.2468 C12.0166612,16.4291736 12.9532562,16.7262725 13.8287603,17.1384923 C14.7046612,17.5511077 15.4282314,18.120778 16.0002645,18.8486901 C16.5711074,19.5762066 16.8575207,20.5715473 16.8575207,21.8323385 C16.8575207,22.1962945 16.7718347,22.7303604 16.6020496,23.4333495 C16.4314711,24.1371297 16.0546116,24.8345802 15.4710744,25.5257011 C14.8871405,26.2172176 14.0294876,26.8177451 12.8985124,27.3268879 C11.7675372,27.836822 10.2406612,28.0908 8.31907438,28.0908 C7.66254545,28.0908 6.8778843,28.0184044 5.9658843,27.8732176 C5.0534876,27.7276352 4.17798347,27.4360747 3.33857851,26.9997231 C2.49917355,26.5625802 1.75695868,25.9260527 1.11272727,25.0893495 C0.468099174,24.2522505 0.0967933884,23.1425802 0,21.7599429 L5.25421488,21.7599429 C5.27801653,22.2212176 5.38790083,22.6089099 5.58267769,22.9242066 C5.77705785,23.2395033 6.02618182,23.5006022 6.33044628,23.7063165 C6.63471074,23.912822 6.97507438,24.0647341 7.35233058,24.1612615 C7.72919008,24.2585802 8.11239669,24.306844 8.50155372,24.306844 C8.84191736,24.306844 9.19497521,24.276778 9.55993388,24.2162505 C9.92489256,24.1557231 10.2589091,24.0520747 10.5631736,23.9064923 C10.8670413,23.7609099 11.1161653,23.5670637 11.3113388,23.3245582 C11.505719,23.0820527 11.6033058,22.7663604 11.6033058,22.3782725 C11.6033058,21.8687341 11.3232397,21.4933055 10.7639008,21.2504044 C10.2041653,21.0078989 9.5107438,20.801789 8.68403306,20.6316791 C7.85692562,20.4623604 6.95682645,20.2799868 5.98373554,20.0861407 C5.01064463,19.8922945 4.11054545,19.5888659 3.28383471,19.1758549 C2.45672727,18.7640308 1.76330579,18.1817011 1.20396694,17.4296571 C0.644231405,16.6780088 0.364561983,15.6589319 0.364561983,14.3732176 C0.364561983,13.6453055 0.510942149,12.9237231 0.802512397,12.2080747 C1.09447934,11.4924264 1.55067769,10.8495692 2.17110744,10.2795033 C2.7911405,9.70983297 3.59404959,9.24895385 4.57904132,8.89647033 C5.56442975,8.54517363 6.75014876,8.36912967 8.13659504,8.36912967 C10.5449256,8.36912967 12.4907107,8.89093187 13.9751405,9.93374505 C15.4583802,10.9773495 16.2735868,12.5170418 16.4195702,14.5548 L11.1653554,14.6643824 Z" id="Fill-1"></path>
            <path d="M30.7958876,16.0467033 C30.7712926,15.391978 30.661805,14.851978 30.4674248,14.4274945 C30.2726479,14.0034066 30.0354248,13.6762418 29.7557554,13.4452088 C29.476086,13.214967 29.159524,13.0511868 28.8072595,12.9538681 C28.4545983,12.8569451 28.1078876,12.8082857 27.767524,12.8082857 C26.9646149,12.8082857 26.3199868,12.9965934 25.8336397,13.3724176 C25.3464992,13.7486374 24.9759868,14.2273187 24.7205157,14.8096484 C24.4654413,15.391978 24.3008132,16.0225714 24.2278215,16.7018242 C24.1552264,17.3810769 24.1183339,18.0243297 24.1183339,18.6303956 C24.1183339,19.2617802 24.1790281,19.8856484 24.3008132,20.5043736 C24.4225983,21.1230989 24.6229289,21.6812967 24.902995,22.1781758 C25.1826645,22.6758462 25.5535736,23.0821319 26.016119,23.397033 C26.4778711,23.7127253 27.0495074,23.8701758 27.7306314,23.8701758 C28.7525157,23.8701758 29.5244826,23.5916703 30.0477223,23.0330769 C30.5705653,22.4756703 30.9053752,21.7358901 31.0513587,20.8137363 L36.196086,20.9957143 C36.0013091,22.0143956 35.6910942,22.9606813 35.265838,23.8337802 C34.8397884,24.7072747 34.2923504,25.4593187 33.623524,26.0899121 C32.9543008,26.7209011 32.145838,27.2126374 31.1973421,27.5635385 C30.2484496,27.9148352 29.141276,28.0908791 27.8770116,28.0908791 C26.3441851,28.0908791 25.0001851,27.8547033 23.8450116,27.3815604 C22.6890446,26.9088132 21.7286479,26.2481538 20.9622347,25.3983956 C20.1962182,24.5498242 19.617838,23.5307473 19.2290777,22.341956 C18.839524,21.1535604 18.6455405,19.8437143 18.6455405,18.412022 C18.6455405,16.9083297 18.8518215,15.5375604 19.2655736,14.3005055 C19.6789289,13.0630549 20.2811107,12.007978 21.0717223,11.1344835 C21.8619372,10.260989 22.8167802,9.58252747 23.9362512,9.09672527 C25.0545322,8.61171429 26.3318876,8.36920879 27.767524,8.36920879 C29.1539702,8.36920879 30.369838,8.56938462 31.4159207,8.96934066 C32.4620033,9.36969231 33.3319537,9.91562637 34.0249785,10.6071429 C34.7184,11.2982637 35.2475901,12.093033 35.6125488,12.9898681 C35.9771107,13.8878901 36.196086,14.8345714 36.2690777,15.8287253 L30.7958876,16.0467033 Z" id="Fill-3"></path>
            <path d="M39.1152397,27.5816176 L44.3694545,27.5816176 L44.3694545,8.87862857 L39.1152397,8.87862857 L39.1152397,27.5816176 Z M38.6772893,3.09291429 C38.6772893,2.70522198 38.7558347,2.32860659 38.9145124,1.96504615 C39.0723967,1.60109011 39.2850248,1.27352967 39.5531901,0.981969231 C39.8201653,0.6912 40.142281,0.454628571 40.5199339,0.272650549 C40.8967934,0.0906725275 41.304595,7.91208791e-05 41.7421488,7.91208791e-05 C42.1313058,7.91208791e-05 42.508562,0.0788043956 42.8735207,0.236254945 C43.2384793,0.394496703 43.5665455,0.61287033 43.8585124,0.891375824 C44.1504793,1.17067253 44.3813554,1.49150769 44.5519339,1.85546374 C44.721719,2.21941978 44.807405,2.6079033 44.807405,3.02012308 C44.807405,3.43313407 44.7280661,3.82082637 44.5701818,4.18438681 C44.4115041,4.54834286 44.1925289,4.87550769 43.9132562,5.16667253 C43.6331901,5.45823297 43.305124,5.68887033 42.9278678,5.85818901 C42.5506116,6.0282989 42.1555041,6.11295824 41.7421488,6.11295824 C41.304595,6.11295824 40.8967934,6.02196923 40.5199339,5.8395956 C40.142281,5.65840879 39.8201653,5.42777143 39.5531901,5.14847473 C39.2850248,4.86996923 39.0723967,4.54834286 38.9145124,4.18438681 C38.7558347,3.82082637 38.6772893,3.45687033 38.6772893,3.09291429 L38.6772893,3.09291429 Z" id="Fill-5"></path>
            <path d="M46.4128264,24.9616879 C46.4128264,24.1127209 46.7103471,23.3915341 47.3065785,22.7965451 C47.9024132,22.2023473 48.6259835,21.9048527 49.477686,21.9048527 C50.3289917,21.9048527 51.052562,22.2023473 51.6491901,22.7965451 C52.2446281,23.3915341 52.5429421,24.1127209 52.5429421,24.9616879 C52.5429421,25.8110505 52.2446281,26.532633 51.6491901,27.1268308 C51.052562,27.7210286 50.3289917,28.0185231 49.477686,28.0185231 C48.6259835,28.0185231 47.9024132,27.7210286 47.3065785,27.1268308 C46.7103471,26.532633 46.4128264,25.8110505 46.4128264,24.9616879" id="Fill-7"></path>
            <path d="M69.071881,18.1208967 C69.071881,17.3933802 68.9679471,16.6959297 68.7620628,16.0289407 C68.554195,15.361556 68.250724,14.7732923 67.8492694,14.2637538 C67.4478149,13.7542154 66.9551207,13.3487209 66.3715835,13.0448967 C65.7876496,12.7418637 65.1065256,12.5899516 64.3286083,12.5899516 C63.5740959,12.5899516 62.9108231,12.7359297 62.3395835,13.0266989 C61.7679471,13.3174681 61.2812033,13.7178198 60.8801455,14.2273582 C60.4786909,14.7368967 60.1740298,15.3314901 59.9681455,16.0103473 C59.7610711,16.6899956 59.6583273,17.4175121 59.6583273,18.1940835 C59.6583273,18.8978637 59.7551207,19.5763253 59.9495008,20.2314462 C60.143881,20.886567 60.442195,21.4685011 60.8436496,21.9780396 C61.2451041,22.487578 61.7429554,22.8938637 62.3395835,23.1968967 C62.9354182,23.5007209 63.6466909,23.6518418 64.474195,23.6518418 C65.2283107,23.6518418 65.8911868,23.4943912 66.4632198,23.1790945 C67.0340628,22.8637978 67.5144595,22.4511824 67.9044099,21.941644 C68.2931702,21.4321055 68.5843438,20.8442374 68.779914,20.1768527 C68.9742942,19.5098637 69.071881,18.8246769 69.071881,18.1208967 L69.071881,18.1208967 Z M54.586195,8.87878681 L59.6218314,8.87878681 L59.6218314,11.4984791 L59.6944264,11.4984791 C60.4485421,10.3828747 61.3478479,9.58256703 62.394724,9.09636923 C63.4400132,8.61175385 64.5709884,8.36924835 65.7876496,8.36924835 C67.1015008,8.36924835 68.2931702,8.64181978 69.3638479,9.18775385 C70.4341289,9.73368791 71.3520793,10.4612044 72.1184926,11.3710945 C72.8845091,12.280589 73.4803438,13.3301275 73.9067901,14.5185231 C74.3320463,15.7073143 74.5450711,16.956633 74.5450711,18.2664791 C74.5450711,19.5763253 74.3443438,20.8197099 73.9428893,21.9962374 C73.5418314,23.1731604 72.9697983,24.2159736 72.2283769,25.1254681 C71.4853686,26.0353582 70.5733686,26.7573363 69.4911868,27.290611 C68.4086083,27.8238857 67.1982942,28.0909187 65.861038,28.0909187 C64.6439802,28.0909187 63.5677488,27.8729407 62.6319471,27.4361934 C61.6949554,26.9994462 60.7893025,26.1991385 59.913005,25.0348747 L59.8404099,25.0348747 L59.8404099,35.7328088 L54.586195,35.7328088 L54.586195,8.87878681 Z" id="Fill-8"></path>
            <path d="M90.6723174,16.3743033 C90.623524,15.9138198 90.5017388,15.4462154 90.3073587,14.9734681 C90.1121851,14.5007209 89.8448132,14.0703033 89.5048463,13.6814242 C89.1636893,13.2937319 88.7507306,12.9784352 88.2643835,12.7359297 C87.7768463,12.4930286 87.2183008,12.3719736 86.5859702,12.3719736 C85.9040529,12.3719736 85.3086149,12.4807648 84.7976727,12.6991385 C84.2871273,12.9175121 83.8495736,13.2086769 83.4846149,13.572633 C83.1196562,13.936589 82.8328463,14.3610725 82.626962,14.8460835 C82.4198876,15.3314901 82.2798545,15.8410286 82.2068628,16.3743033 L90.6723174,16.3743033 Z M82.2068628,19.7223033 C82.2556562,20.2801055 82.3833917,20.8197099 82.5904661,21.3415121 C82.7963504,21.8633143 83.0764165,22.3237978 83.4294744,22.7241495 C83.7821355,23.1241055 84.2196893,23.4520615 84.7429289,23.7064352 C85.2657719,23.9612044 85.8802512,24.088589 86.5859702,24.088589 C87.3888793,24.088589 88.1239537,23.9006769 88.7935736,23.5244571 C89.4620033,23.1490286 89.9788959,22.5967648 90.3438545,21.8688527 L95.452086,22.2688088 C94.8197554,24.1859077 93.6947306,25.6350066 92.0770116,26.6176879 C90.4592926,27.5999736 88.5432595,28.0909187 86.3304992,28.0909187 C84.9194579,28.0909187 83.6238545,27.8602813 82.444086,27.3997978 C81.2639207,26.9393143 80.2551273,26.2782593 79.416119,25.416633 C78.5763174,24.5561934 77.9201851,23.5244571 77.4457388,22.3237978 C76.9708959,21.1231385 76.7336727,19.7709626 76.7336727,18.2664791 C76.7336727,16.7627868 76.9708959,15.3979516 77.4457388,14.1731604 C77.9201851,12.9483692 78.5763174,11.9047648 79.416119,11.0435341 C80.2551273,10.1830945 81.2639207,9.52164396 82.444086,9.06036923 C83.6238545,8.59988571 84.9194579,8.36924835 86.3304992,8.36924835 C87.7403504,8.36924835 89.0359537,8.59988571 90.216119,9.06036923 C91.3958876,9.52164396 92.4054744,10.1830945 93.2444826,11.0435341 C94.0838876,11.9047648 94.7408132,12.9483692 95.2148628,14.1731604 C95.6897058,15.3979516 95.9269289,16.7627868 95.9269289,18.2664791 L95.9269289,19.7223033 L82.2068628,19.7223033 Z" id="Fill-9"></path>
        </g>
    </g>
</svg>
