<svg xmlns="http://www.w3.org/2000/svg" x="0px" y="0px" viewBox="10 300 1000 240">
<path d="M89.3,430.8c-0.6-4.7-2.4-8.2-5.3-11.2c-3.5-2.9-8.2-4.1-14.1-4.1c-4.1,0-8.2,0.6-11.8,2.4c-3.5,1.8-5.3,4.1-5.3,7.6
	c0,3.5,1.8,5.9,5.3,7.6c3.5,1.8,7.6,2.9,13.5,4.1c5.3,1.2,11.2,2.4,17,2.9c5.9,1.2,11.8,2.9,17,5.3c5.3,2.4,10,5.9,13.5,10.6
	s5.3,10.6,5.3,18.2c0,2.4-0.6,5.3-1.8,10c-1.2,4.1-3.5,8.8-7.1,12.9c-3.5,4.1-8.8,7.6-15.9,11.2c-7.1,2.9-16.5,4.7-28.2,4.7
	c-4.1,0-8.8-0.6-14.1-1.2c-5.3-1.2-11.2-2.9-15.9-5.3c-5.3-2.9-9.4-6.5-13.5-11.8s-6.5-11.8-7.1-20.6h32.3c0,2.9,0.6,5.3,1.8,7.1
	c1.2,1.8,2.9,3.5,4.7,4.7s4.1,2.4,6.5,2.9c2.4,0.6,4.7,1.2,7.1,1.2c2.4,0,4.1,0,6.5-0.6c2.4-0.6,4.1-1.2,5.9-1.8
	c1.8-1.2,3.5-2.4,4.7-3.5c1.2-1.8,1.8-3.5,1.8-5.9c0-2.9-1.8-5.3-5.3-7.1c-3.5-1.8-7.6-2.9-12.9-3.5c-5.3-1.2-10.6-2.4-16.5-3.5
	c-5.9-1.2-11.2-2.9-16.5-5.3c-5.3-2.4-9.4-5.9-12.9-10.6c-3.5-4.7-5.3-10.6-5.3-18.8c0-4.7,1.2-8.8,2.9-13.5
	c1.8-4.1,4.7-8.2,8.2-11.8c3.5-3.5,8.8-6.5,14.7-8.2c5.9-2.4,13.5-2.9,21.7-2.9c14.7,0,26.4,2.9,35.8,9.4
	c8.8,6.5,14.1,15.9,14.7,28.2H89.3z"/>
<path d="M207.4,439c0-4.1-0.6-7.1-1.8-10c-1.2-2.4-2.4-4.7-4.1-5.9c-1.8-1.2-3.5-2.4-5.9-2.9s-4.1-1.2-6.5-1.2
	c-4.7,0-8.8,1.2-11.8,3.5c-2.9,2.4-5.3,5.3-7.1,8.8c-1.8,3.5-2.4,7.6-2.9,11.8s-0.6,8.2-0.6,11.8c0,4.1,0.6,7.6,1.2,11.8
	c0.6,3.5,1.8,7.1,3.5,10c1.8,2.9,4.1,5.3,7.1,7.6c2.9,1.8,6.5,2.9,10.6,2.9c6.5,0,11.2-1.8,14.1-5.3c2.9-3.5,5.3-8.2,5.9-13.5
	l31.1,1.2c-1.2,6.5-2.9,11.8-5.9,17.6c-2.4,5.3-5.9,10-10,14.1c-4.1,4.1-8.8,7.1-14.7,8.8c-5.9,2.4-12.3,2.9-20.6,2.9
	c-9.4,0-17.6-1.2-24.7-4.1c-7.1-2.9-12.9-7.1-17.6-12.3c-4.7-5.3-8.2-11.2-10.6-18.8c-2.4-7.1-3.5-15.3-3.5-24.1
	c0-9.4,1.2-17.6,3.5-25.3c2.4-7.6,6.5-14.1,11.2-19.4c4.7-5.3,10.6-9.4,17.6-12.3c7.1-2.9,14.7-4.7,23.5-4.7
	c8.2,0,15.9,1.2,22.3,3.5c6.5,2.4,11.8,5.9,15.9,10c4.1,4.1,7.6,8.8,9.4,14.7c2.4,5.3,3.5,11.2,4.1,17.6L207.4,439z"/>
<path d="M250.9,359.7c0-2.4,0.6-4.7,1.2-7.1c1.2-2.4,2.4-4.1,4.1-5.9c1.8-1.8,3.5-2.9,5.9-4.1c2.4-1.2,4.7-1.8,7.6-1.8
	c2.4,0,4.7,0.6,7.1,1.2c2.4,1.2,4.1,2.4,5.9,4.1c1.8,1.8,2.9,3.5,4.1,5.9c1.2,2.4,1.8,4.7,1.8,7.1c0,2.4-0.6,4.7-1.2,7.1
	c-1.2,2.4-2.4,4.1-4.1,5.9c-1.8,1.8-3.5,2.9-5.9,4.1c-2.4,1.2-4.7,1.8-7.1,1.8c-2.9,0-5.3-0.6-7.6-1.8c-2.4-1.2-4.1-2.4-5.9-4.1
	c-1.8-1.8-2.9-3.5-4.1-5.9C251.5,364.4,250.9,362.1,250.9,359.7z M253.2,395h32.3v114.6h-32.3V395z"/>
<path d="M333.1,461.4c0.6,3.5,1.2,6.5,2.4,10c1.2,2.9,2.9,5.9,5.3,8.2c2.4,2.4,4.7,4.7,8.2,5.9c2.9,1.8,7.1,2.4,11.2,2.4
	c4.7,0,9.4-1.2,13.5-3.5c4.1-2.4,7.1-5.9,9.4-10l31.1,2.4c-4.1,11.8-10.6,20.6-20.6,26.4c-10,5.9-21.7,8.8-35.3,8.8
	c-8.8,0-16.5-1.2-23.5-4.1c-7.1-2.9-13.5-7.1-18.2-12.3c-5.3-5.3-9.4-11.8-11.8-18.8c-2.9-7.6-4.1-15.9-4.1-24.7
	c0-9.4,1.2-17.6,4.1-25.3c2.9-7.6,7.1-14.1,11.8-19.4c5.3-5.3,11.2-9.4,18.2-12.3c7.1-2.9,15.3-4.1,23.5-4.1
	c8.8,0,16.5,1.2,23.5,4.1c7.1,2.9,13.5,7.1,18.2,12.3c5.3,5.3,9.4,11.8,11.8,19.4c2.9,7.6,4.1,15.9,4.1,25.3v8.8h-82.8V461.4z
	 M384.8,441.4c-0.6-2.9-1.2-5.9-2.4-8.8c-1.2-2.9-2.9-5.3-4.7-7.6c-2.4-2.4-4.7-4.1-7.6-5.9c-2.9-1.8-6.5-2.4-10-2.4
	c-4.1,0-7.6,0.6-11.2,1.8c-2.9,1.2-5.9,2.9-8.2,5.3c-2.4,2.4-4.1,4.7-5.3,7.6c-1.2,2.9-2.4,5.9-2.4,9.4h51.7V441.4z"/>
<path d="M504.7,440.2c0-4.1-0.6-7.6-1.8-10.6c-1.2-2.9-2.4-5.3-4.7-7.1c-1.8-1.8-4.1-2.9-6.5-3.5c-2.4-0.6-4.7-1.2-7.6-1.2
	c-6.5,0-11.8,2.4-15.3,7.6c-3.5,4.7-5.3,11.2-5.3,19.4v65.2h-32.3V395.6h30.6v14.7h0.6c4.7-7.1,10-11.8,15.9-14.1
	c5.9-2.4,11.8-3.5,18.2-3.5c7.1,0,12.9,1.2,17.6,2.9c5.3,2.4,9.4,4.7,12.3,8.8c3.5,3.5,5.9,7.6,7.6,12.9c1.8,4.7,2.4,10,2.4,15.3
	v77.6h-32.3v-69.9H504.7z"/>
<path d="M621,439c0-4.1-0.6-7.1-1.8-10c-1.2-2.4-2.4-4.7-4.1-5.9c-1.8-1.2-3.5-2.4-5.9-2.9s-4.1-1.2-6.5-1.2
	c-4.7,0-8.8,1.2-11.8,3.5c-2.9,2.4-5.3,5.3-7.1,8.8c-1.8,3.5-2.4,7.6-2.9,11.8s-0.6,8.2-0.6,11.8c0,4.1,0.6,7.6,1.2,11.8
	c0.6,3.5,1.8,7.1,3.5,10c1.8,2.9,4.1,5.3,7.1,7.6c2.9,1.8,6.5,2.9,10.6,2.9c6.5,0,11.2-1.8,14.1-5.3c2.9-3.5,5.3-8.2,5.9-13.5
	l31.1,1.2c-1.2,6.5-2.9,11.8-5.9,17.6c-2.4,5.3-5.9,10-10,14.1c-4.1,4.1-8.8,7.1-14.7,8.8c-5.9,2.4-12.3,2.9-20.6,2.9
	c-9.4,0-17.6-1.2-24.7-4.1c-7.1-2.9-12.9-7.1-17.6-12.3c-4.7-5.3-8.2-11.2-10.6-18.8c-2.4-7.1-3.5-15.3-3.5-24.1
	c0-9.4,1.2-17.6,3.5-25.3c2.4-7.6,6.5-14.1,11.2-19.4c4.7-5.3,10.6-9.4,17.6-12.3c7.1-2.9,14.7-4.7,23.5-4.7
	c8.2,0,15.9,1.2,22.3,3.5c6.5,2.4,11.8,5.9,15.9,10c4.1,4.1,7.6,8.8,9.4,14.7c2.4,5.3,3.5,11.2,4.1,17.6L621,439z"/>
<path d="M698.6,461.4c0.6,3.5,1.2,6.5,2.4,10c1.2,2.9,2.9,5.9,5.3,8.2c2.4,2.4,4.7,4.7,8.2,5.9c2.9,1.8,7.1,2.4,11.2,2.4
	c4.7,0,9.4-1.2,13.5-3.5c4.1-2.4,7.1-5.9,9.4-10l31.1,2.4c-4.1,11.8-10.6,20.6-20.6,26.4s-21.7,8.8-35.3,8.8
	c-8.8,0-16.5-1.2-23.5-4.1c-7.1-2.9-13.5-7.1-18.2-12.3c-5.3-5.3-9.4-11.8-11.8-18.8c-2.9-7.6-4.1-15.9-4.1-24.7
	c0-9.4,1.2-17.6,4.1-25.3c2.9-7.6,7.1-14.1,11.8-19.4c5.3-5.3,11.2-9.4,18.2-12.3c7.1-2.9,15.3-4.1,23.5-4.1
	c8.8,0,16.5,1.2,23.5,4.1c7.1,2.9,13.5,7.1,18.2,12.3c5.3,5.3,9.4,11.8,11.8,19.4c2.9,7.6,4.1,15.9,4.1,25.3v8.8h-82.8V461.4z
	 M750.3,441.4c-0.6-2.9-1.2-5.9-2.4-8.8c-1.2-2.9-2.9-5.3-4.7-7.6c-2.4-2.4-4.7-4.1-7.6-5.9s-6.5-2.4-10-2.4
	c-4.1,0-7.6,0.6-11.2,1.8c-2.9,1.2-5.9,2.9-8.2,5.3c-2.4,2.4-4.1,4.7-5.3,7.6c-1.2,2.9-2.4,5.9-2.4,9.4h51.7V441.4z"/>
<path d="M789.7,493.7c0-5.3,1.8-9.4,5.3-13.5c3.5-3.5,8.2-5.3,13.5-5.3c5.3,0,9.4,1.8,13.5,5.3c3.5,3.5,5.3,8.2,5.3,13.5
	c0,5.3-1.8,9.4-5.3,13.5c-3.5,3.5-8.2,5.3-13.5,5.3c-5.3,0-9.4-1.8-13.5-5.3C791.4,503.1,789.7,499,789.7,493.7z"/>
<path d="M915.4,494.8L915.4,494.8c-5.9,7.1-11.8,11.8-18.8,14.1c-7.1,2.4-14.1,3.5-20.6,3.5c-4.7,0-8.8-0.6-14.1-1.8
	c-4.7-1.2-8.8-2.9-12.9-5.9c-4.1-2.9-7.1-6.5-9.4-10.6c-2.4-4.7-3.5-10-3.5-16.5c0-2.9,0.6-6.5,1.2-10.6c1.2-3.5,2.9-7.6,6.5-10.6
	c3.5-3.5,8.2-6.5,14.7-8.8c6.5-2.4,15.3-4.1,26.4-5.3l29.4-1.8v-5.3c0-7.1-1.8-11.8-5.9-15.3c-4.1-3.5-9.4-5.3-16.5-5.3
	c-6.5,0-11.8,1.8-15.9,4.7c-3.5,2.9-5.9,7.1-5.9,12.3h-30.6c0.6-4.7,1.2-8.8,2.9-13.5c1.8-4.7,4.7-8.8,8.8-12.9
	c4.1-4.1,9.4-7.1,16.5-9.4c6.5-2.4,15.3-3.5,25.3-3.5c7.1,0,14.1,0.6,20,2.4c6.5,1.2,11.8,3.5,16.5,6.5c4.7,2.9,8.2,7.1,11.2,11.8
	c2.9,4.7,4.1,10.6,4.1,17v66.4c0,2.9,0,5.3,0.6,7.6c0.6,2.4,0.6,4.1,1.2,6.5h-31.1L915.4,494.8L915.4,494.8z M914.2,459.6l-27,2.4
	c-7.6,0.6-12.3,2.4-15.3,4.7c-2.9,2.4-4.1,5.3-4.1,9.4c0,2.4,0.6,4.7,1.8,6.5c1.2,1.8,2.4,2.9,4.1,4.1c1.8,1.2,4.1,1.8,6.5,2.4
	c2.4,0.6,5.3,0.6,7.6,0.6s5.3-0.6,8.2-1.2c2.9-0.6,5.9-1.8,8.8-3.5c2.9-1.8,4.7-3.5,6.5-5.9c1.8-2.4,2.9-5.3,2.9-8.8L914.2,459.6
	L914.2,459.6z"/>
<path d="M958.9,359.7c0-2.4,0.6-4.7,1.2-7.1c1.2-2.4,2.4-4.1,4.1-5.9c1.8-1.8,3.5-2.9,5.9-4.1c2.4-1.2,4.7-1.8,7.6-1.8
	c2.4,0,4.7,0.6,7.1,1.2c2.4,1.2,4.1,2.4,5.9,4.1c1.8,1.8,2.9,3.5,4.1,5.9c1.2,2.4,1.8,4.7,1.8,7.1c0,2.4-0.6,4.7-1.2,7.1
	c-1.2,2.4-2.4,4.1-4.1,5.9c-1.8,1.8-3.5,2.9-5.9,4.1c-2.4,1.2-4.7,1.8-7.1,1.8c-2.9,0-5.3-0.6-7.6-1.8c-2.4-1.2-4.1-2.4-5.9-4.1
	c-1.8-1.8-2.9-3.5-4.1-5.9C959.5,364.4,958.9,362.1,958.9,359.7z M961.8,395h32.3v114.6h-32.3V395z"/>
</svg>
